<svg width="127" height="16" viewBox="0 0 127 16" fill="none" xmlns="http://www.w3.org/2000/svg">
<path d="M7.60156 9.03125H2.83594L1.76562 12H0.21875L4.5625 0.625H5.875L10.2266 12H8.6875L7.60156 9.03125ZM3.28906 7.79688H7.15625L5.21875 2.47656L3.28906 7.79688ZM11.1797 7.70312C11.1797 6.40625 11.487 5.36458 12.1016 4.57812C12.7161 3.78646 13.5208 3.39062 14.5156 3.39062C15.5052 3.39062 16.2891 3.72917 16.8672 4.40625V0H18.3125V12H16.9844L16.9141 11.0938C16.3359 11.8021 15.5312 12.1562 14.5 12.1562C13.5208 12.1562 12.7214 11.7552 12.1016 10.9531C11.487 10.151 11.1797 9.10417 11.1797 7.8125V7.70312ZM12.625 7.86719C12.625 8.82552 12.8229 9.57552 13.2188 10.1172C13.6146 10.6589 14.1615 10.9297 14.8594 10.9297C15.776 10.9297 16.4453 10.5182 16.8672 9.69531V5.8125C16.4349 5.01562 15.7708 4.61719 14.875 4.61719C14.1667 4.61719 13.6146 4.89062 13.2188 5.4375C12.8229 5.98438 12.625 6.79427 12.625 7.86719ZM20.1797 7.69531C20.1797 6.86719 20.3411 6.1224 20.6641 5.46094C20.9922 4.79948 21.4453 4.28906 22.0234 3.92969C22.6068 3.57031 23.2708 3.39062 24.0156 3.39062C25.1667 3.39062 26.0964 3.78906 26.8047 4.58594C27.5182 5.38281 27.875 6.44271 27.875 7.76562V7.86719C27.875 8.6901 27.7161 9.42969 27.3984 10.0859C27.0859 10.737 26.6354 11.2448 26.0469 11.6094C25.4635 11.974 24.7917 12.1562 24.0312 12.1562C22.8854 12.1562 21.9557 11.7578 21.2422 10.9609C20.5339 10.1641 20.1797 9.10938 20.1797 7.79688V7.69531ZM21.6328 7.86719C21.6328 8.80469 21.849 9.55729 22.2812 10.125C22.7188 10.6927 23.3021 10.9766 24.0312 10.9766C24.7656 10.9766 25.349 10.6901 25.7812 10.1172C26.2135 9.53906 26.4297 8.73177 26.4297 7.69531C26.4297 6.76823 26.2083 6.01823 25.7656 5.44531C25.3281 4.86719 24.7448 4.57812 24.0156 4.57812C23.3021 4.57812 22.7266 4.86198 22.2891 5.42969C21.8516 5.9974 21.6328 6.8099 21.6328 7.86719ZM36.8438 7.86719C36.8438 9.15885 36.5469 10.1979 35.9531 10.9844C35.3594 11.7656 34.5625 12.1562 33.5625 12.1562C32.4948 12.1562 31.6693 11.7786 31.0859 11.0234L31.0156 12H29.6875V0H31.1328V4.47656C31.7161 3.7526 32.5208 3.39062 33.5469 3.39062C34.5729 3.39062 35.3776 3.77865 35.9609 4.55469C36.5495 5.33073 36.8438 6.39323 36.8438 7.74219V7.86719ZM35.3984 7.70312C35.3984 6.71875 35.2083 5.95833 34.8281 5.42188C34.4479 4.88542 33.901 4.61719 33.1875 4.61719C32.2344 4.61719 31.5495 5.0599 31.1328 5.94531V9.60156C31.5755 10.487 32.2656 10.9297 33.2031 10.9297C33.8958 10.9297 34.4349 10.6615 34.8203 10.125C35.2057 9.58854 35.3984 8.78125 35.3984 7.70312ZM42.1797 12.1562C41.0339 12.1562 40.1016 11.7812 39.3828 11.0312C38.6641 10.276 38.3047 9.26823 38.3047 8.00781V7.74219C38.3047 6.90365 38.4635 6.15625 38.7812 5.5C39.1042 4.83854 39.5521 4.32292 40.125 3.95312C40.7031 3.57812 41.3281 3.39062 42 3.39062C43.099 3.39062 43.9531 3.7526 44.5625 4.47656C45.1719 5.20052 45.4766 6.23698 45.4766 7.58594V8.1875H39.75C39.7708 9.02083 40.013 9.69531 40.4766 10.2109C40.9453 10.7214 41.5391 10.9766 42.2578 10.9766C42.7682 10.9766 43.2005 10.8724 43.5547 10.6641C43.9089 10.4557 44.2188 10.1797 44.4844 9.83594L45.3672 10.5234C44.6589 11.612 43.5964 12.1562 42.1797 12.1562ZM42 4.57812C41.4167 4.57812 40.9271 4.79167 40.5312 5.21875C40.1354 5.64062 39.8906 6.23438 39.7969 7H44.0312V6.89062C43.9896 6.15625 43.7917 5.58854 43.4375 5.1875C43.0833 4.78125 42.6042 4.57812 42 4.57812ZM52.8516 7.54688V12H51.3516V0.625H55.5469C56.7917 0.625 57.7656 0.942708 58.4688 1.57812C59.1771 2.21354 59.5312 3.05469 59.5312 4.10156C59.5312 5.20573 59.1849 6.05729 58.4922 6.65625C57.8047 7.25 56.8177 7.54688 55.5312 7.54688H52.8516ZM52.8516 6.32031H55.5469C56.349 6.32031 56.9635 6.13281 57.3906 5.75781C57.8177 5.3776 58.0312 4.83073 58.0312 4.11719C58.0312 3.4401 57.8177 2.89844 57.3906 2.49219C56.9635 2.08594 56.3776 1.875 55.6328 1.85938H52.8516V6.32031ZM62.6641 4.57031C63.3047 3.78385 64.138 3.39062 65.1641 3.39062C66.9505 3.39062 67.8516 4.39844 67.8672 6.41406V12H66.4219V6.40625C66.4167 5.79688 66.276 5.34635 66 5.05469C65.7292 4.76302 65.3047 4.61719 64.7266 4.61719C64.2578 4.61719 63.8464 4.74219 63.4922 4.99219C63.138 5.24219 62.862 5.57031 62.6641 5.97656V12H61.2188V0H62.6641V4.57031ZM69.6484 7.69531C69.6484 6.86719 69.8099 6.1224 70.1328 5.46094C70.4609 4.79948 70.9141 4.28906 71.4922 3.92969C72.0755 3.57031 72.7396 3.39062 73.4844 3.39062C74.6354 3.39062 75.5651 3.78906 76.2734 4.58594C76.987 5.38281 77.3438 6.44271 77.3438 7.76562V7.86719C77.3438 8.6901 77.1849 9.42969 76.8672 10.0859C76.5547 10.737 76.1042 11.2448 75.5156 11.6094C74.9323 11.974 74.2604 12.1562 73.5 12.1562C72.3542 12.1562 71.4245 11.7578 70.7109 10.9609C70.0026 10.1641 69.6484 9.10938 69.6484 7.79688V7.69531ZM71.1016 7.86719C71.1016 8.80469 71.3177 9.55729 71.75 10.125C72.1875 10.6927 72.7708 10.9766 73.5 10.9766C74.2344 10.9766 74.8177 10.6901 75.25 10.1172C75.6823 9.53906 75.8984 8.73177 75.8984 7.69531C75.8984 6.76823 75.6771 6.01823 75.2344 5.44531C74.7969 4.86719 74.2135 4.57812 73.4844 4.57812C72.7708 4.57812 72.1953 4.86198 71.7578 5.42969C71.3203 5.9974 71.1016 6.8099 71.1016 7.86719ZM81.1172 1.5V3.54688H82.6953V4.66406H81.1172V9.90625C81.1172 10.2448 81.1875 10.5 81.3281 10.6719C81.4688 10.8385 81.7083 10.9219 82.0469 10.9219C82.2135 10.9219 82.4427 10.8906 82.7344 10.8281V12C82.3542 12.1042 81.9844 12.1562 81.625 12.1562C80.9792 12.1562 80.4922 11.9609 80.1641 11.5703C79.8359 11.1797 79.6719 10.625 79.6719 9.90625V4.66406H78.1328V3.54688H79.6719V1.5H81.1172ZM83.8516 7.69531C83.8516 6.86719 84.013 6.1224 84.3359 5.46094C84.6641 4.79948 85.1172 4.28906 85.6953 3.92969C86.2786 3.57031 86.9427 3.39062 87.6875 3.39062C88.8385 3.39062 89.7682 3.78906 90.4766 4.58594C91.1901 5.38281 91.5469 6.44271 91.5469 7.76562V7.86719C91.5469 8.6901 91.388 9.42969 91.0703 10.0859C90.7578 10.737 90.3073 11.2448 89.7188 11.6094C89.1354 11.974 88.4635 12.1562 87.7031 12.1562C86.5573 12.1562 85.6276 11.7578 84.9141 10.9609C84.2057 10.1641 83.8516 9.10938 83.8516 7.79688V7.69531ZM85.3047 7.86719C85.3047 8.80469 85.5208 9.55729 85.9531 10.125C86.3906 10.6927 86.974 10.9766 87.7031 10.9766C88.4375 10.9766 89.0208 10.6901 89.4531 10.1172C89.8854 9.53906 90.1016 8.73177 90.1016 7.69531C90.1016 6.76823 89.8802 6.01823 89.4375 5.44531C89 4.86719 88.4167 4.57812 87.6875 4.57812C86.974 4.57812 86.3984 4.86198 85.9609 5.42969C85.5234 5.9974 85.3047 6.8099 85.3047 7.86719ZM98.2812 9.75781C98.2812 9.36719 98.1328 9.0651 97.8359 8.85156C97.5443 8.63281 97.0312 8.44531 96.2969 8.28906C95.5677 8.13281 94.987 7.94531 94.5547 7.72656C94.1276 7.50781 93.8099 7.2474 93.6016 6.94531C93.3984 6.64323 93.2969 6.28385 93.2969 5.86719C93.2969 5.17448 93.5885 4.58854 94.1719 4.10938C94.7604 3.63021 95.5104 3.39062 96.4219 3.39062C97.3802 3.39062 98.1562 3.63802 98.75 4.13281C99.349 4.6276 99.6484 5.26042 99.6484 6.03125H98.1953C98.1953 5.63542 98.026 5.29427 97.6875 5.00781C97.3542 4.72135 96.9323 4.57812 96.4219 4.57812C95.8958 4.57812 95.4844 4.69271 95.1875 4.92188C94.8906 5.15104 94.7422 5.45052 94.7422 5.82031C94.7422 6.16927 94.8802 6.43229 95.1562 6.60938C95.4323 6.78646 95.9297 6.95573 96.6484 7.11719C97.3724 7.27865 97.9583 7.47135 98.4062 7.69531C98.8542 7.91927 99.1849 8.1901 99.3984 8.50781C99.6172 8.82031 99.7266 9.20312 99.7266 9.65625C99.7266 10.4115 99.4245 11.0182 98.8203 11.4766C98.2161 11.9297 97.4323 12.1562 96.4688 12.1562C95.7917 12.1562 95.1927 12.0365 94.6719 11.7969C94.151 11.5573 93.7422 11.224 93.4453 10.7969C93.1536 10.3646 93.0078 9.89844 93.0078 9.39844H94.4531C94.4792 9.88281 94.6719 10.2682 95.0312 10.5547C95.3958 10.8359 95.875 10.9766 96.4688 10.9766C97.0156 10.9766 97.4531 10.8672 97.7812 10.6484C98.1146 10.4245 98.2812 10.1276 98.2812 9.75781ZM103.055 4.57031C103.695 3.78385 104.529 3.39062 105.555 3.39062C107.341 3.39062 108.242 4.39844 108.258 6.41406V12H106.812V6.40625C106.807 5.79688 106.667 5.34635 106.391 5.05469C106.12 4.76302 105.695 4.61719 105.117 4.61719C104.648 4.61719 104.237 4.74219 103.883 4.99219C103.529 5.24219 103.253 5.57031 103.055 5.97656V12H101.609V0H103.055V4.57031ZM110.039 7.69531C110.039 6.86719 110.201 6.1224 110.523 5.46094C110.852 4.79948 111.305 4.28906 111.883 3.92969C112.466 3.57031 113.13 3.39062 113.875 3.39062C115.026 3.39062 115.956 3.78906 116.664 4.58594C117.378 5.38281 117.734 6.44271 117.734 7.76562V7.86719C117.734 8.6901 117.576 9.42969 117.258 10.0859C116.945 10.737 116.495 11.2448 115.906 11.6094C115.323 11.974 114.651 12.1562 113.891 12.1562C112.745 12.1562 111.815 11.7578 111.102 10.9609C110.393 10.1641 110.039 9.10938 110.039 7.79688V7.69531ZM111.492 7.86719C111.492 8.80469 111.708 9.55729 112.141 10.125C112.578 10.6927 113.161 10.9766 113.891 10.9766C114.625 10.9766 115.208 10.6901 115.641 10.1172C116.073 9.53906 116.289 8.73177 116.289 7.69531C116.289 6.76823 116.068 6.01823 115.625 5.44531C115.188 4.86719 114.604 4.57812 113.875 4.57812C113.161 4.57812 112.586 4.86198 112.148 5.42969C111.711 5.9974 111.492 6.8099 111.492 7.86719ZM126.688 7.86719C126.688 9.15365 126.393 10.1901 125.805 10.9766C125.216 11.763 124.419 12.1562 123.414 12.1562C122.388 12.1562 121.581 11.8307 120.992 11.1797V15.25H119.547V3.54688H120.867L120.938 4.48438C121.526 3.75521 122.344 3.39062 123.391 3.39062C124.406 3.39062 125.208 3.77344 125.797 4.53906C126.391 5.30469 126.688 6.36979 126.688 7.73438V7.86719ZM125.242 7.70312C125.242 6.75 125.039 5.9974 124.633 5.44531C124.227 4.89323 123.669 4.61719 122.961 4.61719C122.086 4.61719 121.43 5.00521 120.992 5.78125V9.82031C121.424 10.5911 122.086 10.9766 122.977 10.9766C123.669 10.9766 124.219 10.7031 124.625 10.1562C125.036 9.60417 125.242 8.78646 125.242 7.70312Z" fill="#727272"/>
</svg>
